M48
;DRILL file {Pcbnew (2012-01-19 BZR 3256)-stable} date 3/14/2012 4:46:20 PM
;FORMAT={-:-/ absolute / metric / decimal}
FMAT,2
METRIC,TZ
T1C0.635
T2C0.762
T3C0.813
T4C0.899
T5C1.001
T6C1.600
T7C3.048
T8C3.251
%
G90
G05
M71
T1
X137.414Y82.169
X137.414Y92.837
X137.541Y76.327
X137.541Y80.899
X155.321Y81.407
X155.321Y94.234
X165.481Y94.742
X165.481Y98.044
T2
X185.293Y102.743
X185.293Y105.283
X185.293Y107.823
X185.293Y110.363
X185.293Y112.903
T3
X118.364Y84.328
X118.364Y87.249
X118.491Y81.534
X119.126Y107.823
X119.190Y114.999
X119.253Y111.760
X125.984Y84.328
X125.984Y87.249
X126.111Y81.534
X126.746Y107.823
X126.810Y114.999
X126.873Y111.760
X128.143Y89.281
X128.143Y96.901
X130.429Y101.600
X130.429Y106.680
X134.747Y82.169
X134.747Y84.709
X134.747Y87.249
X134.747Y89.789
X134.747Y92.329
X134.747Y94.869
X134.747Y97.409
X134.747Y99.949
X134.747Y102.489
X134.747Y105.029
X134.747Y107.569
X134.747Y110.109
X134.747Y112.649
X134.747Y115.189
X142.367Y82.169
X142.367Y84.709
X142.367Y87.249
X142.367Y89.789
X142.367Y92.329
X142.367Y94.869
X142.367Y97.409
X142.367Y99.949
X142.367Y102.489
X142.367Y105.029
X142.367Y107.569
X142.367Y110.109
X142.367Y112.649
X142.367Y115.189
X145.161Y92.456
X145.161Y94.869
X145.415Y79.121
X145.415Y86.741
X147.066Y76.581
X147.828Y109.601
X147.828Y112.141
X147.828Y114.681
X147.828Y117.221
X149.606Y76.581
X149.606Y79.121
X152.781Y92.456
X152.781Y94.869
X154.686Y75.946
X155.448Y109.601
X155.448Y112.141
X155.448Y114.681
X155.448Y117.221
X157.226Y75.946
X158.369Y92.329
X158.369Y94.869
X158.369Y97.409
X158.369Y99.949
X158.369Y102.489
X158.369Y105.029
X158.369Y107.569
X158.369Y110.109
X158.369Y112.649
X158.369Y115.189
X160.020Y76.708
X161.290Y80.518
X161.290Y83.058
X161.290Y85.598
X161.290Y88.138
X161.290Y90.678
X161.290Y93.218
X161.290Y95.758
X161.290Y98.298
X161.290Y100.838
X161.290Y103.378
X161.290Y105.918
X161.290Y108.458
X161.290Y110.998
X161.290Y113.538
X161.544Y117.729
X161.544Y122.809
X167.640Y76.708
X168.910Y80.518
X168.910Y83.058
X168.910Y85.598
X168.910Y88.138
X168.910Y90.678
X168.910Y93.218
X168.910Y95.758
X168.910Y98.298
X168.910Y100.838
X168.910Y103.378
X168.910Y105.918
X168.910Y108.458
X168.910Y110.998
X168.910Y113.538
X169.164Y117.729
X169.164Y122.809
X172.720Y107.061
X172.720Y109.601
X173.482Y90.932
X173.482Y96.012
X174.117Y75.946
X175.006Y111.379
X175.006Y118.999
X176.657Y75.946
X176.657Y78.486
X177.673Y107.061
X177.673Y109.601
X177.800Y81.026
X179.705Y111.379
X179.705Y118.999
X182.499Y97.028
X182.499Y104.648
X182.499Y107.823
X182.499Y115.443
X185.293Y83.693
X185.293Y86.233
X185.293Y89.408
X185.293Y91.948
X185.293Y94.488
X185.293Y97.028
X185.293Y99.568
X185.293Y115.443
X185.420Y81.026
T4
X120.470Y92.883
X120.470Y95.382
X120.470Y97.881
X120.470Y100.482
X123.020Y94.082
X123.020Y96.683
X123.020Y99.182
X123.020Y101.681
T5
X110.119Y90.632
X110.119Y93.182
X110.119Y101.382
X110.119Y103.932
T6
X117.119Y89.632
X117.119Y105.032
T7
X106.680Y74.676
X106.680Y120.777
X184.023Y74.676
X184.023Y120.777
T8
X114.120Y91.582
X114.168Y102.982
T0
M30
